<svg width="281" height="58" xmlns="http://www.w3.org/2000/svg"><path d="M64.388 29.516h.721c.674 0 1.178-.134 1.513-.399.334-.267.502-.655.502-1.163 0-.514-.141-.894-.421-1.138-.28-.245-.72-.368-1.318-.368h-.997v3.068zm4.948-1.641c0 1.113-.348 1.963-1.042 2.552-.695.59-1.684.883-2.966.883h-.94v3.676h-2.191V24.653h3.301c1.253 0 2.206.269 2.859.808.653.54.979 1.345.979 2.414zm5.628-.939c.292 0 .535.021.728.063l-.163 2.022a2.467 2.467 0 0 0-.635-.071c-.689 0-1.225.176-1.609.53-.384.353-.576.849-.576 1.484v4.022h-2.156v-7.902h1.632l.319 1.328h.106c.245-.442.577-.799.993-1.07a2.452 2.452 0 0 1 1.361-.406m3.41 4.084c0 .783.128 1.374.385 1.775.257.4.676.6 1.255.6.575 0 .988-.198 1.24-.596.252-.399.379-.991.379-1.779 0-.781-.128-1.367-.382-1.759-.255-.391-.672-.587-1.251-.587-.575 0-.99.195-1.244.583-.255.389-.382.977-.382 1.763zm5.464 0c0 1.288-.339 2.293-1.018 3.019-.678.726-1.624 1.089-2.835 1.089-.758 0-1.427-.166-2.008-.499a3.315 3.315 0 0 1-1.335-1.431c-.311-.622-.466-1.348-.466-2.178 0-1.29.337-2.294 1.01-3.01.674-.717 1.622-1.074 2.842-1.074.758 0 1.428.165 2.007.494.58.33 1.025.804 1.336 1.421.312.617.467 1.341.467 2.169zm2.917-1.349c0 .429.098.767.293 1.017.195.25.493.375.894.375.406 0 .703-.125.891-.375.188-.25.282-.588.282-1.017 0-.952-.39-1.427-1.173-1.427-.792 0-1.187.475-1.187 1.427zm-.785 6.432c0 .297.142.531.427.7.286.17.685.255 1.199.255.772 0 1.378-.107 1.816-.319.439-.212.657-.502.657-.869 0-.297-.129-.502-.388-.615-.259-.113-.66-.17-1.202-.17h-1.117c-.395 0-.726.094-.993.279-.266.187-.399.433-.399.739zm6.1-9.019v1.096l-1.237.317c.227.354.339.75.339 1.188 0 .848-.295 1.509-.887 1.983-.592.474-1.412.71-2.463.71l-.389-.022-.318-.035c-.221.17-.333.359-.333.566 0 .311.397.466 1.189.466h1.342c.868 0 1.528.187 1.983.559.455.372.683.919.683 1.64 0 .923-.386 1.639-1.157 2.149-.77.509-1.877.763-3.318.763-1.103 0-1.945-.192-2.527-.576-.582-.384-.874-.922-.874-1.616 0-.475.149-.874.446-1.194.297-.32.732-.549 1.307-.686a1.427 1.427 0 0 1-.579-.462 1.105 1.105 0 0 1-.248-.683c0-.301.088-.552.262-.752.175-.201.427-.397.757-.591a2.121 2.121 0 0 1-.987-.862c-.243-.396-.364-.862-.364-1.399 0-.862.281-1.529.842-2.001.561-.471 1.361-.706 2.403-.706.221 0 .484.02.788.06.304.04.499.069.583.088h2.757zm5.284-.148c.292 0 .536.021.729.063l-.163 2.022a2.475 2.475 0 0 0-.636-.071c-.688 0-1.224.176-1.608.53-.384.353-.576.849-.576 1.484v4.022h-2.157v-7.902h1.633l.319 1.328h.106c.245-.442.576-.799.993-1.07.417-.271.87-.406 1.36-.406m5.931 4.389l-.834.029c-.627.018-1.094.131-1.4.338-.306.207-.459.524-.459.948 0 .607.348.912 1.046.912.5 0 .898-.145 1.198-.432.299-.287.449-.669.449-1.145v-.65zm.636 3.661l-.417-1.074h-.057c-.363.457-.736.773-1.12.95-.385.177-.885.266-1.502.266-.759 0-1.356-.217-1.792-.651-.436-.433-.654-1.05-.654-1.852 0-.838.294-1.457.88-1.855.587-.398 1.471-.618 2.654-.66l1.372-.043v-.347c0-.801-.41-1.201-1.23-1.201-.632 0-1.374.19-2.227.572l-.714-1.456c.909-.475 1.918-.714 3.026-.714 1.06 0 1.873.232 2.438.693.566.462.849 1.164.849 2.106v5.266h-1.506zm10.284 0h-2.156V30.37c0-.569-.095-.996-.286-1.282-.191-.285-.492-.427-.902-.427-.55 0-.952.202-1.201.607-.25.405-.375 1.072-.375 2v3.718h-2.156v-7.902h1.647l.29 1.011h.121c.211-.363.517-.647.918-.852.401-.205.86-.307 1.378-.307 1.183 0 1.985.386 2.404 1.159h.191c.212-.368.524-.653.937-.855a3.114 3.114 0 0 1 1.395-.304c.896 0 1.573.229 2.032.688.46.46.69 1.197.69 2.209v5.153h-2.163V30.37c0-.569-.096-.996-.286-1.282-.192-.285-.492-.427-.902-.427-.527 0-.923.188-1.183.565-.262.377-.393.976-.393 1.794v3.966m11.005-3.661l-.834.029c-.627.018-1.094.131-1.399.338-.307.207-.46.524-.46.948 0 .607.348.912 1.046.912.5 0 .899-.145 1.198-.432.3-.287.449-.669.449-1.145v-.65zm.637 3.661l-.417-1.074h-.057c-.363.457-.736.773-1.121.95-.384.177-.885.266-1.502.266-.759 0-1.355-.217-1.792-.651-.436-.433-.653-1.05-.653-1.852 0-.838.293-1.457.88-1.855.586-.398 1.471-.618 2.654-.66l1.371-.043v-.347c0-.801-.41-1.201-1.23-1.201-.631 0-1.374.19-2.226.572l-.714-1.456c.909-.475 1.917-.714 3.025-.714 1.06 0 1.873.232 2.439.693.565.462.848 1.164.848 2.106v5.266h-1.505zm11.219 0l-2.488-8.107h-.063c.089 1.65.134 2.749.134 3.301v4.806h-1.958V24.653h2.983l2.446 7.902h.042l2.594-7.902h2.983v10.333h-2.043v-4.891c0-.23.004-.497.011-.799.007-.301.039-1.102.096-2.403h-.064l-2.665 8.093h-2.008m14.224 0l-.29-1.01h-.112a2.28 2.28 0 0 1-.984.851c-.424.2-.907.301-1.448.301-.929 0-1.629-.249-2.1-.746-.471-.497-.707-1.212-.707-2.146v-5.152h2.157v4.615c0 .571.1.998.303 1.283.203.286.526.428.969.428.603 0 1.039-.201 1.308-.604.268-.404.402-1.072.402-2.004v-3.718h2.156v7.902h-1.654m10.689 0h-2.155V30.37c0-.569-.101-.996-.304-1.282-.203-.285-.526-.427-.968-.427-.604 0-1.039.201-1.308.604-.268.402-.403 1.07-.403 2.003v3.718h-2.156v-7.902h1.647l.29 1.011h.12a2.27 2.27 0 0 1 .993-.866 3.394 3.394 0 0 1 1.439-.293c.919 0 1.616.248 2.092.745s.713 1.215.713 2.152v5.153m5.041-1.576c.55 0 .955-.16 1.211-.48.257-.321.398-.866.421-1.633v-.234c0-.848-.131-1.455-.392-1.823-.262-.368-.687-.551-1.276-.551-.481 0-.854.203-1.121.611-.265.407-.399 1-.399 1.777 0 .777.135 1.361.403 1.75.269.389.653.583 1.153.583zm-.757 1.718c-.928 0-1.658-.361-2.188-1.082-.53-.721-.795-1.72-.795-2.997 0-1.296.27-2.305.809-3.028.54-.724 1.283-1.085 2.23-1.085.994 0 1.753.386 2.277 1.159h.07a8.839 8.839 0 0 1-.162-1.576v-2.531h2.163v10.998h-1.654l-.417-1.025h-.092c-.49.778-1.237 1.167-2.241 1.167zm6.143-.142h2.157v-7.902h-2.157v7.902zm-.092-9.945c0-.702.391-1.053 1.173-1.053.783 0 1.174.351 1.174 1.053 0 .334-.098.595-.293.782-.196.185-.489.278-.881.278-.782 0-1.173-.353-1.173-1.06zm8.363 6.284l-.834.029c-.627.018-1.094.131-1.4.338-.306.207-.46.524-.46.948 0 .607.349.912 1.047.912.499 0 .899-.145 1.198-.432.299-.287.449-.669.449-1.145v-.65zm.636 3.661l-.417-1.074h-.056c-.363.457-.736.773-1.121.95-.384.177-.885.266-1.502.266-.759 0-1.356-.217-1.792-.651-.436-.433-.654-1.05-.654-1.852 0-.838.293-1.457.88-1.855.587-.398 1.472-.618 2.655-.66l1.371-.043v-.347c0-.801-.41-1.201-1.23-1.201-.632 0-1.374.19-2.226.572l-.714-1.456c.909-.475 1.917-.714 3.025-.714 1.06 0 1.873.232 2.439.693.565.462.847 1.164.847 2.106v5.266h-1.505zm3.211.001h2.157V23.988h-2.157zm10.626-1.577c.552 0 .956-.16 1.213-.48.257-.321.397-.866.42-1.633v-.234c0-.848-.131-1.455-.391-1.823-.262-.368-.688-.551-1.277-.551-.48 0-.854.203-1.12.611-.266.407-.399 1-.399 1.777 0 .777.133 1.361.402 1.75s.653.583 1.152.583zm-.755 1.718c-.929 0-1.659-.361-2.189-1.082-.529-.721-.795-1.72-.795-2.997 0-1.296.27-2.305.81-3.028.539-.724 1.283-1.085 2.23-1.085.994 0 1.753.386 2.276 1.159h.071a8.756 8.756 0 0 1-.163-1.576v-2.531h2.163v10.998h-1.654l-.417-1.025h-.092c-.49.778-1.237 1.167-2.24 1.167zm9.473-6.659c-.457 0-.815.146-1.074.435-.259.29-.407.701-.445 1.234h3.025c-.01-.533-.148-.944-.417-1.234-.269-.289-.632-.435-1.089-.435zm.304 6.659c-1.272 0-2.267-.352-2.983-1.054-.716-.702-1.074-1.696-1.074-2.982 0-1.324.331-2.348.993-3.071.663-.724 1.578-1.085 2.746-1.085 1.117 0 1.987.317 2.609.954.622.636.933 1.515.933 2.636v1.046h-5.097c.023.612.205 1.091.545 1.435.339.344.814.516 1.427.516.476 0 .926-.049 1.35-.148.425-.1.867-.257 1.329-.474v1.668c-.377.189-.78.329-1.209.421-.428.092-.951.138-1.569.138zm13.15-4.44a808.049 808.049 0 0 1-1.17-3.78 11.038 11.038 0 0 1-.187-.694c-.155.604-.601 2.095-1.336 4.474h2.693zm1.273 4.298l-.749-2.46h-3.768l-.75 2.46h-2.36l3.647-10.376h2.679l3.661 10.376h-2.36zm3.247.001h2.156V23.988h-2.156zm3.903-.001h2.156v-7.902h-2.156v7.902zm-.092-9.945c0-.702.392-1.053 1.174-1.053.782 0 1.173.351 1.173 1.053 0 .334-.098.595-.293.782-.195.185-.489.278-.88.278-.782 0-1.174-.353-1.174-1.06zm11.073 9.945h-2.157V30.37c0-.569-.094-.996-.286-1.282-.19-.285-.491-.427-.901-.427-.551 0-.952.202-1.201.607-.25.405-.375 1.072-.375 2v3.718h-2.157v-7.902h1.648l.29 1.011h.12c.212-.363.518-.647.919-.852.4-.205.859-.307 1.378-.307 1.183 0 1.984.386 2.403 1.159h.192c.212-.368.523-.653.936-.855a3.115 3.115 0 0 1 1.396-.304c.895 0 1.573.229 2.032.688.46.46.689 1.197.689 2.209v5.153h-2.163V30.37c0-.569-.095-.996-.286-1.282-.191-.285-.491-.427-.901-.427-.528 0-.923.188-1.184.565-.262.377-.392.976-.392 1.794v3.966m9.95-6.517c-.457 0-.816.146-1.075.435-.259.29-.408.701-.446 1.234h3.026c-.009-.533-.149-.944-.417-1.234-.269-.289-.631-.435-1.088-.435zm.303 6.659c-1.272 0-2.266-.352-2.983-1.054-.716-.702-1.074-1.696-1.074-2.982 0-1.324.331-2.348.993-3.071.662-.724 1.577-1.085 2.746-1.085 1.117 0 1.986.317 2.609.954.622.636.933 1.515.933 2.636v1.046h-5.097c.024.612.206 1.091.544 1.435.34.344.816.516 1.428.516.477 0 .927-.049 1.351-.148.424-.1.867-.257 1.329-.474v1.668a5.06 5.06 0 0 1-1.209.421c-.429.092-.952.138-1.57.138zm11.878-.142h-2.156V30.37c0-.569-.101-.996-.304-1.282-.203-.285-.525-.427-.968-.427-.604 0-1.039.201-1.308.604-.268.402-.402 1.07-.402 2.003v3.718h-2.156v-7.902h1.646l.29 1.011h.12a2.27 2.27 0 0 1 .993-.866 3.394 3.394 0 0 1 1.439-.293c.919 0 1.616.248 2.093.745.475.497.713 1.215.713 2.152v5.153m5.021-1.576c.377 0 .829-.083 1.356-.247v1.604c-.537.241-1.196.361-1.978.361-.862 0-1.491-.218-1.884-.654-.393-.436-.591-1.09-.591-1.961v-3.81h-1.032v-.913l1.188-.72.622-1.668h1.379v1.682h2.212v1.619h-2.212v3.81c0 .305.085.532.257.677.172.147.4.22.683.22m4.158-2.39c0 .783.128 1.374.385 1.775.257.4.676.6 1.255.6.575 0 .988-.198 1.24-.596.252-.399.379-.991.379-1.779 0-.781-.128-1.367-.382-1.759-.255-.391-.672-.587-1.251-.587-.575 0-.99.195-1.244.583-.255.389-.382.977-.382 1.763zm5.464 0c0 1.288-.339 2.293-1.018 3.019-.678.726-1.624 1.089-2.835 1.089-.758 0-1.427-.166-2.007-.499a3.318 3.318 0 0 1-1.336-1.431c-.311-.622-.466-1.348-.466-2.178 0-1.29.337-2.294 1.011-3.01.673-.717 1.621-1.074 2.841-1.074.758 0 1.428.165 2.007.494.58.33 1.026.804 1.336 1.421.312.617.467 1.341.467 2.169zm6.877 1.62c0 .81-.282 1.427-.845 1.851-.563.425-1.406.637-2.527.637a7.9 7.9 0 0 1-1.47-.117 5.508 5.508 0 0 1-1.139-.343v-1.781c.401.188.852.346 1.354.473.502.127.944.192 1.325.192.782 0 1.174-.227 1.174-.679a.57.57 0 0 0-.155-.414c-.104-.106-.283-.226-.537-.36a13.656 13.656 0 0 0-1.019-.47c-.607-.255-1.054-.49-1.339-.707a1.99 1.99 0 0 1-.622-.746c-.13-.28-.194-.625-.194-1.035 0-.702.271-1.245.816-1.629.544-.385 1.316-.576 2.315-.576.952 0 1.878.207 2.778.622l-.65 1.555c-.396-.17-.766-.309-1.11-.417a3.466 3.466 0 0 0-1.053-.163c-.636 0-.955.172-.955.516 0 .194.103.361.308.502.205.142.653.351 1.347.629.617.25 1.069.483 1.356.7.288.217.5.466.637.749.137.282.205.619.205 1.011M35.934 4.664h.547c.512 0 .896-.101 1.15-.304.254-.202.382-.497.382-.883 0-.39-.108-.678-.321-.865-.213-.186-.546-.28-1.001-.28h-.757v2.332zm3.759-1.246c0 .845-.263 1.491-.792 1.938-.528.449-1.279.672-2.253.672h-.714v2.793h-1.665V.969h2.507c.953 0 1.677.204 2.173.615.496.41.744 1.021.744 1.834zm-9.536 5.403H28.52V.969h4.501v1.363h-2.864v2.026h2.664v1.359h-2.664v3.104zm-4.525 0h-1.896l-1.063-4.125c-.04-.147-.107-.45-.201-.91a9.632 9.632 0 0 1-.164-.927 12.42 12.42 0 0 1-.162.932c-.086.428-.152.734-.199.916L20.89 8.821h-1.891L16.995.969h1.639l1.005 4.285c.175.792.301 1.478.381 2.058.021-.204.07-.52.147-.948.077-.429.149-.761.218-.996L21.528.969h1.575l1.143 4.399c.051.196.113.498.189.902.075.405.132.752.171 1.042.036-.28.093-.628.172-1.045.079-.417.151-.754.215-1.013l.999-4.285h1.638l-1.998 7.852zM21.56 36.134c-3.051 0-5.01.724-5.544.949-.033.014-.058-.031-.034-.056 3.353-3.485 7.279-3.293 8.223-3.293h11.161c.563 0 1.019.537 1.019 1.201 0 .662-.456 1.199-1.019 1.199H21.56zm2.514 3.085c-3.288 0-4.246-1.868-9.222-.635-.034.009-.057-.038-.028-.058 2.774-1.903 5.791-1.73 7.011-1.73h13.531c.563 0 1.019.537 1.019 1.199s-.456 1.199-1.019 1.199c0 0-8.689.025-11.292.025zm.234 3.037c-3.375 0-3.645-2.49-8.647-3.051-.035-.004-.039-.056-.005-.064 4.11-1.028 5.638.715 8.037.715h11.673c.563 0 1.019.537 1.019 1.2 0 .663-.456 1.2-1.019 1.2H24.308zm-.733-9.183c-2.717 0-4.969 1.185-5.495 1.484-.029.016-.059-.019-.04-.046.44-.649 2.82-3.837 6.91-3.837h10.416c.563 0 1.019.537 1.019 1.2 0 .662-.456 1.199-1.019 1.199H23.575zm14.941-6.625a.756.756 0 0 0-.444-.205.739.739 0 0 0-.362.043c.048-.099.087-.205.103-.33a.85.85 0 0 0-.085-.512c-.335-.736.626-2.209.504-2.275-.115-.064-.661 1.56-1.191 2.216a.917.917 0 0 0-.199.489.906.906 0 0 0 .086.513c.074.132.186.226.317.234a.3.3 0 0 0 .108-.006c-.007.019-.015.04-.018.059a.45.45 0 0 0 .142.388.715.715 0 0 0 .44.207.773.773 0 0 0 .494-.093c.719-.393 2.21-.781 2.178-.919-.028-.138-1.483.715-2.073.191zm1.099-1.074a.63.63 0 0 0-.406-.199.654.654 0 0 0-.268.043c.013-.046.032-.085.036-.131a.72.72 0 0 0-.102-.462c-.364-.677.588-1.956.465-2.019-.123-.064-.646 1.368-1.176 1.934a.683.683 0 0 0-.196.425.758.758 0 0 0 .099.465c.084.123.2.21.338.229a.53.53 0 0 0 .179-.021c-.003.007-.011.018-.008.026a.524.524 0 0 0 .139.398c.1.107.244.181.404.195a.624.624 0 0 0 .434-.117c.619-.447 2.036-.712 1.999-.856-.033-.138-1.391.611-1.937.09zm.963-.993a.547.547 0 0 0-.388-.104.541.541 0 0 0-.197.051c.011-.03.029-.054.039-.083a.693.693 0 0 0-.023-.43c-.231-.665.793-1.648.693-1.728-.099-.074-.764 1.117-1.309 1.536a.644.644 0 0 0-.232.354.641.641 0 0 0 .022.428.434.434 0 0 0 .264.255c.092.029.184.01.271-.027a.378.378 0 0 0-.024.17c.013.136.078.25.187.33a.567.567 0 0 0 .753-.067c.49-.497 1.714-.962 1.664-1.081-.053-.12-1.153.765-1.72.396zm1.896-2.134c-.103-.151-.958.787-1.591.877a.669.669 0 0 0-.36.178.688.688 0 0 0-.22.361.38.38 0 0 0 .055.324.325.325 0 0 0 .299.109.64.64 0 0 0 .365-.181.73.73 0 0 0 .215-.356c.192-.643 1.313-1.214 1.237-1.312zm-17.695 1.27c-.025.093-.21.816-.21.816-.051.029-.272-.019-.33-.024-.423-.04-.8-.407-.637-.845.131-.358.403-.396.748-.412.142-.006.399.028.528.117 0 0-.051.165-.099.348zm-.485 2.182l-.039.247c-.263-.165-.417-.542-.291-.84.097-.226.337-.285.514-.295a49.8 49.8 0 0 0-.184.888zm-.378 2.696c-.033.185-.283.21-.454.261-.496.149-.966.085-1.118-.508-.165-.634.315-.901.83-1.025.28-.066.54-.011.732.226.048.059.105.112.117.168 0 0-.076.704-.107.878zm-1.562-3.122c.384-.092.78-.236 1.074.141.31.396.208 1.031-.291 1.199-.328.111-.725.207-1.005-.061-.367-.351-.342-1.148.222-1.279zm-.375-2.056c.405-.098.822-.247 1.131.149.324.414.216 1.084-.306 1.259-.347.114-.764.215-1.058-.067-.386-.366-.357-1.203.233-1.341zm-.375 4.445c-.105.37-.41.425-.729.502-.21-.257-.774-.909-.784-.986a.218.218 0 0 1 .011-.09c.027-.077.117-.151.182-.194.192-.125.601-.217.821-.172.397.085.604.568.499.94zm-2.005-1.899c-.288-1.024 1.427-1.47 1.693-.466.272 1.032-1.459 1.47-1.693.466zm-.251-2.044c-.295-1.017 1.429-1.464 1.695-.465.272 1.033-1.462 1.472-1.695.465zm-.243-2.009c-.28-.948 1.339-1.368 1.585-.433.255.962-1.364 1.377-1.585.433zm-.165 3.867c-.08.047-.109.072-.135.072l-.771-.838c.009-.024.247-.196.326-.242.641-.356 1.168.662.58 1.008zm-1.461-1.887c-.381-.84 1.004-1.751 1.424-.845.386.834-1 1.761-1.424.845zm1.165-2.66c.438.779-.882 1.648-1.26.81-.336-.722.838-1.565 1.26-.81zm-1.108-1.815c.194-.172.42-.265.651-.154.371.178.38.733.058.954-.147.101-.396.226-.577.181-.397-.101-.473-.68-.132-.981zm.05-1.669c.16-.108.373-.205.557-.13.334.137.323.622.052.816-.124.088-.346.197-.496.157-.339-.085-.422-.634-.113-.843zm.888-2.378c.198-.107.485-.152.664.048a.468.468 0 0 1-.135.734c-.212.106-.498.146-.666-.051a.48.48 0 0 1 .137-.731zm-.159 1.807c-.16-.595.843-.876 1.006-.271.181.587-.845.88-1.006.271zm1.618 1.039c.233.643-.856 1.007-1.069.372-.218-.643.877-1.01 1.069-.372zm.136-3.133c.207-.083.474-.173.705 0 .289.216.227.702-.104.853-.218.099-.496.165-.691-.008-.246-.22-.259-.705.09-.845zm-.192 5.381c-.294.069-.601.186-.845-.066-.312-.322-.222-.885.199-1.039.274-.104.62-.162.843.066.286.293.255.93-.197 1.039zm.006-3.284c-.19-.638.849-.965 1.05-.346.204.635-.872.973-1.05.346zm1.739 1.169c.244.728-.986 1.116-1.212.399-.228-.734 1.011-1.122 1.212-.399zm.066-1.95c.217-.058.447-.037.612.14.252.271.165.734-.207.803-.177.032-.447.019-.583-.101-.247-.218-.236-.731.178-.842zm1.05 1.528c.396 0 .596.582.365.871-.139.175-.439.186-.643.154-.378-.058-.619-.545-.365-.874.155-.199.42-.151.643-.151zm-1.903 2.396c-.244-.837 1.179-1.211 1.396-.38.221.845-1.21 1.217-1.396.38zm.871 1.071c.389-.04.793-.13 1.032.277.249.43.063 1.028-.441 1.129-.33.069-.733.101-.968-.192-.31-.387-.186-1.161.377-1.214zm1.976-1.864c.479.198.641.764.302 1.08-.18.165-.511.133-.734.088-.446-.088-.738-.758-.347-1.076.2-.163.56-.183.779-.092zm.754 2.018c.301.37.189 1.023-.338 1.055-.276.016-.636-.016-.822-.242-.299-.361-.186-1.039.341-1.057.276-.011.633.018.819.244zm2.039-6.664a.12.12 0 0 0-.134-.05c-.063.021-.105.09-.081.151 1.205 3.237-.333 4.831-.977 7.097-.771-1.841 1.785-3.573.468-6.929-.019-.043-.053-.078-.1-.085-.066-.009-.129.018-.139.106-.035.236-.189 2.096-1.698 3.186a3.004 3.004 0 0 0-.704-1.021c-.138-.627-.548-1.488-1.409-1.742-.129-.325-.389-.79-.887-1.04-.469-.234-1.013-.213-1.617.061-.729.085-1.23.37-1.495.845-.25.449-.205.938-.121 1.271-.614.656-.644 1.628-.627 2.009-.365.876-.16 1.899-.045 2.324-.435 1.191-.011 2.346.16 2.729 0 .104.005.202.011.3-1.428-1.562-4.677-3.497-5.918-4.235a.15.15 0 0 0-.182.021.155.155 0 0 0-.007.218c2.768 2.7 5.238 6.032 7.61 12.946 1.185-1.231 3.323-2.849 6.367-2.849h3.562c-2.263-8.428 1.031-11.444-2.037-15.313zm16.836 4.358c-.651-.17-4.808-.906-9.466 7.663.679-3.191 2.745-7.052 3.311-8.173v-.008a.155.155 0 0 0-.042-.192.134.134 0 0 0-.188.035c-3.079 5.133-4.16 8.091-4.798 11.63h1.929c.328-3.412 4.637-11.449 9.23-10.852h.005c.026.006.05-.016.053-.039.01-.03-.008-.059-.034-.064zm-9.262 28.232l-1.042-4.355h-1.774c.281 1.105.682 2.229 1.203 3.215a.158.158 0 0 0 .159.083.165.165 0 0 0 .134-.19c-.121-.922-.265-1.811-.402-2.699.376 1.395.882 2.758 1.565 4.013.018.039.057.057.094.045.05-.011.077-.064.063-.112zm1.793-1.977c-.182-.728-.37-1.621-.533-2.378h-.674c.261.808.616 1.709.931 2.479.032.075.102.112.17.093a.16.16 0 0 0 .106-.194zm.225 2.561l-.005-.01c-.218-.609-.52-1.154-.758-1.738a23.187 23.187 0 0 1-.706-1.758c-.171-.45-.352-.965-.492-1.433h-.65c.184.545.423 1.132.646 1.658.491 1.188 1.057 2.352 1.779 3.393a.103.103 0 0 0 .123.035c.058-.022.084-.088.063-.147zm.974-20.9c-.05-.075-.171-.091-.229-.03a13.332 13.332 0 0 0-2.146 3.069h.703c.352-.826 1.145-2.285 1.653-2.811l.005-.005a.18.18 0 0 0 .014-.223zm-5.354-6.045c.651-1.069 1.617-1.887 2.436-2.875.028-.038.025-.096-.009-.128a.082.082 0 0 0-.118-.003c-.185.199-.38.386-.579.571-.087-.042-.308.043-.53.218-.176.139-.302.293-.347.404-.113-.026-.325.106-.517.351-.158.205-.25.42-.247.553-.121.01-.297.164-.446.409-.097.162-.16.319-.181.449a1.212 1.212 0 0 0-.309.353c-.134.224-.202.449-.182.579-.031.057-.062.11-.089.165l.016-.132c.191-1.513.47-3.011.892-4.456.425-1.441.934-2.894 1.808-4.061l.006-.005a.167.167 0 0 0-.017-.21.137.137 0 0 0-.204-.003 6.693 6.693 0 0 0-.785 1.05c-.099-.053-.309.144-.47.452-.146.278-.199.536-.144.635 0 0-.002.008-.008.005-.104-.045-.299.189-.417.502-.115.295-.137.566-.058.657-.004.005-.004.008-.007.013-.119-.043-.31.226-.428.606-.098.321-.108.6-.037.712.006.005 0 .019-.005.016-.121-.043-.305.234-.412.611-.108.364-.1.686.003.749-.118-.013-.284.263-.37.638-.079.324-.072.603.004.715-.115.034-.244.305-.309.656-.063.343-.031.627.053.718-.108.055-.218.334-.258.68-.039.343.011.624.1.715-.089.1-.176.339-.212.627-.038.273-.014.51.039.643-.097.082-.171.359-.173.691-.008.265.031.491.099.621a1.554 1.554 0 0 0-.089.542c-.005.279.04.518.11.643-.021.981-.008 2.025.045 3.008h2.118c.016-.765.065-1.6.142-2.357.149-1.35.373-2.721 1.046-3.874l.006-.008a.114.114 0 0 0-.013-.127c-.039-.035-.095-.035-.131.008-.916 1.063-1.318 2.506-1.554 3.89-.042.271-.076.544-.107.816.057-1.111.16-2.217.414-3.269.292-1.281.874-2.5 1.984-3.183a.097.097 0 0 0 .039-.112.091.091 0 0 0-.11-.066c-.071.021-.136.058-.204.088-.075-.091-.344-.024-.622.153-.266.173-.442.386-.423.503 0 .005-.013.013-.013.002-.003-.013-.006-.026-.014-.034-.099-.082-.367.104-.592.42-.229.316-.318.646-.221.731.006.002.003.01-.002.01-.118-.048-.315.221-.439.596-.089.262-.11.504-.079.643a14.243 14.243 0 0 0-.244.929c.027-.438.066-.879.129-1.315.187-1.254.565-2.482 1.236-3.528zm6.664-3.498a.752.752 0 0 0-.486-.037.805.805 0 0 0-.326.17.885.885 0 0 0-.018-.345.837.837 0 0 0-.251-.449c-.573-.571-.179-2.291-.313-2.312-.131-.018-.084 1.696-.354 2.498a.92.92 0 0 0-.019.529.889.889 0 0 0 .26.451c.113.099.25.144.378.104a.217.217 0 0 0 .097-.043c0 .022 0 .043.002.064.03.141.129.25.266.314a.722.722 0 0 0 .488.037.792.792 0 0 0 .428-.26c.538-.625 1.803-1.515 1.726-1.634-.076-.117-1.144 1.195-1.878.913zm2.446-2.165c-.082-.117-1.095 1.065-1.785.77a.635.635 0 0 0-.451-.042.703.703 0 0 0-.237.133c-.003-.048 0-.091-.011-.133a.705.705 0 0 0-.253-.398c-.579-.505-.124-2.041-.26-2.057-.14-.016-.137 1.512-.437 2.229a.69.69 0 0 0-.036.468c.042.17.137.311.254.401a.486.486 0 0 0 .395.093.5.5 0 0 0 .159-.082c0 .008-.002.018 0 .026a.534.534 0 0 0 .27.327.643.643 0 0 0 .447.037.626.626 0 0 0 .365-.26c.428-.64 1.661-1.39 1.58-1.512zm.249-1.48c-.09-.093-.817 1.124-1.475.978a.55.55 0 0 0-.399.04.517.517 0 0 0-.168.117c0-.03.008-.059.008-.091a.676.676 0 0 0-.171-.393c-.444-.542.174-1.825.055-1.865-.121-.035-.331 1.315-.698 1.902a.639.639 0 0 0-.095.412.655.655 0 0 0 .168.396c.095.098.21.152.336.144a.377.377 0 0 0 .245-.12c0 .053.01.111.037.167a.44.44 0 0 0 .286.242c.123.04.27.029.401-.035a.589.589 0 0 0 .283-.292c.289-.64 1.274-1.509 1.187-1.602zm-.436-1.69c-.149-.106-.625 1.076-1.189 1.384a.683.683 0 0 0-.275.295.718.718 0 0 0-.079.415c.013.125.071.231.162.284a.32.32 0 0 0 .316-.002.668.668 0 0 0 .28-.298.737.737 0 0 0 .079-.412c-.042-.669.811-1.6.706-1.666zM30.252 42.917h-5.944a6.17 6.17 0 0 1-1.106-.093c.003 0 .003.002.003.002.977 1.451 2.506 2.552 4.058 3.29.238 1.323.538 2.548.645 2.644.111.095 1.632-.343 1.68-.484.044-.14-.622-2.407-.622-2.407.8-1.374 1.047-2.185 1.286-2.952zm14.953 10.169c-1.501.593-3.459.642-5.057.218-3.661-1.14-7.726-3.3-11.628-1.507-3.903-1.793-7.968.367-11.629 1.507-1.598.424-3.556.375-5.057-.218a.038.038 0 0 0-.037.066c2.16 1.671 5.185 2.44 7.91 1.456 2.616-.815 4.828-3.587 7.928-2.404-2.453.959-4.747 2.729-6.519 4.4l1.288 1.057c1.61-1.873 3.42-3.746 5.47-4.886.28-.165.448-.231.646-.242.196.011.364.077.642.242 2.053 1.14 3.863 3.013 5.473 4.886l1.288-1.057c-1.772-1.671-4.066-3.441-6.519-4.4 3.099-1.183 5.312 1.589 7.928 2.404 2.725.984 5.75.215 7.91-1.456.034-.029.005-.082-.037-.066zm-24.129-2.525c-3.826-.927-4.873-4.514-8.072-6.071-.034-.018-.07.022-.05.053 1.008 1.658 1.554 4.198 4.459 5.764.023.012.011.05-.016.042-4.168-.802-5.918.313-10.285-1.661-.037-.016-.076.024-.052.059 1.435 2.083 4.841 3.507 9.508 3.114 1.68-.143 2.897-.85 4.508-1.227.04-.011.04-.065 0-.073zm-8.015-2.2c-1.454-1.905-1.039-5.972-4.322-9.695-.026-.029-.073-.006-.065.031.627 2.742.44 5.857 2.157 8.139.016.024-.008.048-.031.032-3.386-2.665-6.866-3.468-8.414-5.625-.024-.029-.072-.014-.066.024.383 2.792 5.747 7.145 10.713 7.153a.037.037 0 0 0 .028-.059zm-5.082-5.064c-1.56-2.891.303-7.302-1.465-11.588-.019-.045-.087-.034-.087.014-.052 2.34-1.506 5.835-.627 8.473.011.024-.021.037-.034.016-2.239-3.271-4.015-3.954-5.496-6.948-.021-.045-.089-.033-.091.015C.084 35.314.984 36.973 2 38.514a17.38 17.38 0 0 0 5.929 4.836c.034.016.065-.019.05-.053zM6.921 25.691c-.003-.048-.066-.064-.09-.022-1.188 2.224-3.307 3.994-3.375 6.931-.002.029-.034.031-.039.004-.386-2.266-2.31-4.806-2.394-8.088 0-.05-.07-.063-.088-.016-1.583 4.268.692 8.314 3.115 11.657.026.034.078.014.078-.032-.1-3.542 2.971-6.186 2.793-10.434zm1.512-5.522c-1.124 1.56-3.652 2.663-4.575 4.913-.013.032-.052.024-.048-.013.368-2.522-.606-5.45.308-8.8.013-.048-.048-.08-.076-.043-1.381 1.698-1.848 3.688-1.924 5.838-.095 2.641.834 4.567 1.294 6.358.01.043.066.04.076-.003.661-2.348 3.981-3.762 5.021-8.213.012-.047-.048-.077-.076-.037zm3.046-5.245c-1.847 1.448-4.669 2.843-5.275 3.85-.011.021-.042.005-.037-.016l.686-3.287c.306-1.395.572-2.731 1.343-3.98.024-.037-.021-.08-.055-.053-3.517 2.785-3.002 6.812-3.158 10.11-.002.035.04.051.064.027 2.07-2.246 5.445-3.553 6.49-6.606.013-.037-.026-.069-.058-.045zm2.617-5.049c-3.108.099-5.391 2.716-6.369 6.048-.006.019.02.035.036.024 4.28-3.138 4.042-4.483 6.359-5.976.042-.027.023-.096-.026-.096zm35.828 38.813c-4.364 1.974-6.117.859-10.285 1.661-.026.008-.039-.03-.016-.042 2.905-1.566 3.451-4.106 4.459-5.764.021-.031-.016-.071-.05-.053-3.196 1.557-4.243 5.144-8.072 6.071-.04.008-.04.062 0 .073 1.611.377 2.829 1.084 4.509 1.227 4.666.393 8.075-1.031 9.508-3.114.023-.035-.016-.075-.053-.059zm4.726-7.445c-1.547 2.157-5.028 2.96-8.413 5.625-.021.016-.048-.008-.029-.032 1.714-2.282 1.527-5.397 2.154-8.139.008-.037-.039-.06-.065-.031-3.28 3.723-2.868 7.79-4.319 9.695-.019.025-.003.059.028.059 4.966-.008 10.327-4.361 10.71-7.153.006-.038-.042-.053-.066-.024zm2.207-7.964c-.002-.048-.07-.06-.091-.015-1.48 2.994-3.257 3.677-5.493 6.948-.016.021-.045.008-.037-.016.879-2.638-.572-6.133-.627-8.473 0-.048-.068-.059-.087-.014-1.768 4.286.095 8.697-1.461 11.588-.019.034.013.069.046.053a17.38 17.38 0 0 0 5.929-4.836c1.016-1.541 1.916-3.2 1.821-5.235zm-.755-8.779c-.018-.047-.089-.034-.089.016-.084 3.282-2.008 5.822-2.394 8.088-.005.027-.036.025-.036-.004-.068-2.937-2.189-4.707-3.378-6.931-.023-.042-.087-.026-.087.022-.179 4.248 2.89 6.892 2.79 10.434 0 .046.055.066.081.032 2.42-3.343 4.696-7.389 3.113-11.657zm-1.184-2.436c-.076-2.15-.543-4.14-1.923-5.838-.029-.037-.087-.005-.076.043.913 3.35-.061 6.278.31 8.8.004.037-.038.045-.05.013-.924-2.25-3.451-3.353-4.575-4.913-.026-.04-.086-.01-.076.037 1.039 4.451 4.359 5.865 5.021 8.213.01.043.065.046.075.003.46-1.791 1.389-3.717 1.294-6.358zm-6.022-10.626c-.035-.027-.08.016-.056.053.771 1.249 1.037 2.585 1.344 3.98l.685 3.287c.005.021-.026.037-.037.016-.606-1.007-3.425-2.402-5.274-3.85-.03-.024-.072.008-.059.045 1.045 3.053 4.42 4.36 6.49 6.606.024.024.066.008.064-.027-.156-3.298.359-7.325-3.157-10.11zM42.94 9.875c-.049 0-.065.069-.026.096 2.317 1.493 2.079 2.838 6.359 5.976.019.011.042-.005.037-.024-.979-3.332-3.262-5.949-6.37-6.048z" fill="#FFF" fill-rule="evenodd"/></svg>