<svg width="130" height="58" xmlns="http://www.w3.org/2000/svg"><path d="M35.934 4.664h.548c.511 0 .895-.101 1.149-.304.254-.202.382-.497.382-.883 0-.39-.108-.678-.32-.865-.214-.186-.547-.28-1.002-.28h-.757v2.332zm3.76-1.246c0 .845-.265 1.491-.793 1.938-.528.449-1.279.672-2.253.672h-.714v2.793h-1.665V.969h2.508c.952 0 1.676.204 2.173.615.496.41.744 1.021.744 1.834zm-9.536 5.403h-1.639V.969h4.501v1.363h-2.862v2.026h2.663v1.359h-2.663v3.104zm-4.526 0h-1.896l-1.063-4.125c-.04-.147-.107-.45-.202-.91a10.34 10.34 0 0 1-.164-.927c-.021.194-.075.505-.16.932a21.01 21.01 0 0 1-.2.916l-1.058 4.114h-1.89L16.995.969h1.639l1.004 4.285c.176.792.302 1.478.381 2.058.022-.204.071-.52.148-.948.077-.429.15-.761.218-.996L21.529.969h1.573l1.144 4.399a23.19 23.19 0 0 1 .36 1.944c.036-.28.094-.628.172-1.045.079-.417.151-.754.215-1.013l.999-4.285h1.638l-1.998 7.852zm-4.073 27.313c-3.051 0-5.009.724-5.544.949-.031.014-.057-.031-.032-.056 3.352-3.485 7.278-3.293 8.222-3.293h11.162c.562 0 1.018.537 1.018 1.201 0 .662-.456 1.199-1.018 1.199H21.559zm2.515 3.085c-3.288 0-4.246-1.868-9.222-.635-.034.009-.057-.038-.028-.058 2.774-1.903 5.791-1.73 7.011-1.73h13.532c.562 0 1.018.537 1.018 1.199s-.456 1.199-1.018 1.199c0 0-8.69.025-11.293.025zm.233 3.037c-3.374 0-3.644-2.49-8.646-3.051-.035-.004-.039-.056-.005-.064 4.109-1.028 5.638.715 8.037.715h11.674c.562 0 1.018.537 1.018 1.2 0 .663-.456 1.2-1.018 1.2h-11.06zm-.732-9.183c-2.716 0-4.968 1.185-5.495 1.484-.029.016-.059-.019-.04-.046.441-.649 2.82-3.837 6.91-3.837h10.417c.562 0 1.018.537 1.018 1.2 0 .662-.456 1.199-1.018 1.199H23.575zm14.941-6.625a.756.756 0 0 0-.444-.205.74.74 0 0 0-.362.043 1.02 1.02 0 0 0 .102-.33.85.85 0 0 0-.083-.512c-.336-.736.624-2.209.503-2.275-.115-.064-.661 1.56-1.191 2.216a.925.925 0 0 0-.199.489.915.915 0 0 0 .086.513c.074.132.186.226.318.234a.294.294 0 0 0 .107-.006c-.007.019-.015.04-.018.059a.453.453 0 0 0 .142.388c.104.111.26.185.44.207a.771.771 0 0 0 .494-.093c.719-.393 2.21-.781 2.178-.919-.029-.138-1.483.715-2.073.191zm1.1-1.074a.636.636 0 0 0-.407-.199.657.657 0 0 0-.268.043c.013-.046.031-.085.037-.131a.726.726 0 0 0-.103-.462c-.364-.677.588-1.956.465-2.019-.123-.064-.646 1.368-1.176 1.934a.69.69 0 0 0-.197.425.765.765 0 0 0 .1.465c.084.123.199.21.338.229a.53.53 0 0 0 .179-.021c-.003.007-.01.018-.008.026a.524.524 0 0 0 .139.398c.1.107.244.181.404.195a.624.624 0 0 0 .434-.117c.619-.447 2.036-.712 1.999-.856-.034-.138-1.391.611-1.936.09zm.962-.993a.548.548 0 0 0-.388-.104.541.541 0 0 0-.197.051c.011-.03.029-.054.04-.083a.7.7 0 0 0-.024-.43c-.231-.665.792-1.648.693-1.728-.1-.074-.764 1.117-1.31 1.536a.648.648 0 0 0-.231.354.648.648 0 0 0 .021.428.437.437 0 0 0 .266.255c.091.029.183.01.27-.027a.408.408 0 0 0-.024.17c.013.136.079.25.187.33a.567.567 0 0 0 .752-.067c.491-.497 1.714-.962 1.665-1.081-.053-.12-1.153.765-1.72.396zm1.895-2.134c-.102-.151-.958.787-1.59.877a.66.66 0 0 0-.359.178.69.69 0 0 0-.221.361.38.38 0 0 0 .055.324.326.326 0 0 0 .3.109.64.64 0 0 0 .364-.181.73.73 0 0 0 .215-.356c.192-.643 1.313-1.214 1.236-1.312zm-17.694 1.27c-.025.093-.209.816-.209.816-.053.029-.273-.019-.331-.024-.422-.04-.8-.407-.638-.845.133-.358.404-.396.748-.412.143-.006.4.028.529.117 0 0-.051.165-.099.348zm-.485 2.182l-.039.247c-.263-.165-.417-.542-.291-.84.097-.226.337-.285.514-.295a49.8 49.8 0 0 0-.184.888zm-.378 2.696c-.033.185-.283.21-.454.261-.496.149-.966.085-1.118-.508-.165-.634.315-.901.83-1.025.28-.066.54-.011.732.226.048.059.105.112.118.168 0 0-.077.704-.108.878zm-1.561-3.122c.383-.092.779-.236 1.073.141.31.396.208 1.031-.291 1.199-.328.111-.725.207-1.005-.061-.368-.351-.342-1.148.223-1.279zm-.376-2.056c.404-.098.822-.247 1.132.149.322.414.215 1.084-.307 1.259-.347.114-.764.215-1.058-.067-.386-.366-.357-1.203.233-1.341zm-.375 4.445c-.105.37-.409.425-.729.502-.21-.257-.774-.909-.784-.986a.205.205 0 0 1 .012-.09c.026-.077.115-.151.181-.194.192-.125.601-.217.822-.172.396.085.603.568.498.94zm-2.005-1.899c-.289-1.024 1.428-1.47 1.693-.466.273 1.032-1.459 1.47-1.693.466zm-.252-2.044c-.294-1.017 1.431-1.464 1.696-.465.273 1.033-1.462 1.472-1.696.465zm-.241-2.009c-.281-.948 1.338-1.368 1.585-.433.255.962-1.365 1.377-1.585.433zm-.166 3.867c-.079.047-.109.072-.136.072l-.77-.838c.009-.024.248-.196.327-.242.64-.356 1.167.662.579 1.008zm-1.461-1.887c-.381-.84 1.005-1.751 1.425-.845.385.834-1 1.761-1.425.845zm1.165-2.66c.438.779-.882 1.648-1.26.81-.336-.722.837-1.565 1.26-.81zm-1.108-1.815c.195-.172.42-.265.651-.154.37.178.381.733.058.954-.147.101-.396.226-.577.181-.397-.101-.472-.68-.132-.981zm.05-1.669c.16-.108.373-.205.556-.13.335.137.324.622.053.816-.124.088-.346.197-.496.157-.338-.085-.422-.634-.113-.843zm.887-2.378c.199-.107.486-.152.665.048a.468.468 0 0 1-.135.734c-.212.106-.498.146-.666-.051a.48.48 0 0 1 .136-.731zm-.157 1.807c-.161-.595.842-.876 1.005-.271.181.587-.845.88-1.005.271zm1.616 1.039c.234.643-.855 1.007-1.067.372-.218-.643.876-1.01 1.067-.372zm.137-3.133c.208-.083.474-.173.706 0 .289.216.226.702-.105.853-.218.099-.496.165-.69-.008-.247-.22-.26-.705.089-.845zm-.192 5.381c-.294.069-.601.186-.844-.066-.313-.322-.224-.885.199-1.039.273-.104.619-.162.842.066.286.293.255.93-.197 1.039zm.006-3.284c-.189-.638.85-.965 1.049-.346.205.635-.871.973-1.049.346zm1.739 1.169c.245.728-.986 1.116-1.212.399-.228-.734 1.011-1.122 1.212-.399zm.066-1.95c.217-.058.446-.037.612.14.251.271.165.734-.208.803-.176.032-.446.019-.583-.101-.246-.218-.234-.731.179-.842zm1.05 1.528c.396 0 .596.582.365.871-.139.175-.439.186-.643.154-.378-.058-.619-.545-.365-.874.155-.199.42-.151.643-.151zm-1.903 2.396c-.244-.837 1.178-1.211 1.396-.38.221.845-1.209 1.217-1.396.38zm.871 1.071c.389-.04.793-.13 1.032.277.249.43.063 1.028-.441 1.129-.33.069-.732.101-.968-.192-.31-.387-.187-1.161.377-1.214zm1.975-1.864c.48.198.642.764.304 1.08-.181.165-.512.133-.735.088-.446-.088-.738-.758-.347-1.076.201-.163.56-.183.778-.092zm.755 2.018c.301.37.189 1.023-.339 1.055-.275.016-.635-.016-.821-.242-.299-.361-.186-1.039.341-1.057.276-.011.633.018.819.244zm2.039-6.664a.12.12 0 0 0-.134-.05c-.063.021-.105.09-.081.151 1.205 3.237-.334 4.831-.977 7.097-.771-1.841 1.785-3.573.468-6.929-.019-.043-.053-.078-.1-.085-.066-.009-.129.018-.139.106-.034.236-.189 2.096-1.698 3.186a3.015 3.015 0 0 0-.703-1.021c-.14-.627-.549-1.488-1.41-1.742-.129-.325-.388-.79-.887-1.04-.469-.234-1.013-.213-1.617.061-.729.085-1.23.37-1.495.845-.25.449-.205.938-.121 1.271-.614.656-.643 1.628-.627 2.009-.365.876-.16 1.899-.045 2.324-.436 1.191-.01 2.346.16 2.729 0 .104.006.202.011.3-1.428-1.562-4.677-3.497-5.918-4.235a.148.148 0 0 0-.181.021.154.154 0 0 0-.008.218c2.769 2.7 5.238 6.032 7.61 12.946 1.184-1.231 3.323-2.849 6.367-2.849h3.562c-2.263-8.428 1.031-11.444-2.037-15.313zm16.836 4.358c-.651-.17-4.808-.906-9.466 7.663.679-3.191 2.745-7.052 3.312-8.173v-.008a.155.155 0 0 0-.043-.192.136.136 0 0 0-.189.035c-3.078 5.133-4.159 8.091-4.797 11.63h1.929c.328-3.412 4.637-11.449 9.23-10.852h.005c.027.006.05-.016.053-.039.01-.03-.008-.059-.034-.064zm-9.262 28.232l-1.042-4.355h-1.774c.281 1.105.682 2.229 1.202 3.215a.16.16 0 0 0 .16.083.165.165 0 0 0 .134-.19c-.121-.922-.265-1.811-.402-2.699.376 1.395.882 2.758 1.565 4.013.018.039.058.057.094.045.05-.011.076-.064.063-.112zm1.793-1.977c-.182-.728-.371-1.621-.533-2.378h-.675c.263.808.617 1.709.932 2.479.031.075.102.112.171.093.081-.024.125-.111.105-.194zm.225 2.561l-.005-.01c-.218-.609-.52-1.154-.758-1.738a23.622 23.622 0 0 1-.707-1.758c-.17-.45-.351-.965-.49-1.433h-.651c.184.545.423 1.132.646 1.658.49 1.188 1.057 2.352 1.779 3.393a.103.103 0 0 0 .123.035c.058-.022.084-.088.063-.147zm.974-20.9c-.05-.075-.171-.091-.228-.03a13.313 13.313 0 0 0-2.147 3.069h.703c.352-.826 1.144-2.285 1.654-2.811l.005-.005c.052-.059.063-.157.013-.223zm-5.354-6.045c.651-1.069 1.617-1.887 2.436-2.875a.097.097 0 0 0-.009-.128c-.031-.035-.083-.035-.118-.003-.186.199-.38.386-.579.571-.087-.042-.307.043-.53.218-.176.139-.302.293-.347.404-.113-.026-.325.106-.517.351-.157.205-.249.42-.247.553-.121.01-.296.164-.446.409-.097.162-.16.319-.181.449a1.227 1.227 0 0 0-.309.353c-.134.224-.202.449-.182.579-.031.057-.062.11-.089.165l.016-.132c.192-1.513.469-3.011.892-4.456.425-1.441.934-2.894 1.808-4.061l.006-.005a.168.168 0 0 0-.016-.21.138.138 0 0 0-.205-.003 6.631 6.631 0 0 0-.785 1.05c-.099-.053-.309.144-.469.452-.147.278-.199.536-.145.635 0 0-.002.008-.008.005-.105-.045-.299.189-.417.502-.115.295-.136.566-.057.657-.006.005-.006.008-.009.013-.118-.043-.309.226-.427.606-.097.321-.108.6-.037.712.005.005 0 .019-.005.016-.121-.043-.304.234-.412.611-.108.364-.1.686.002.749-.118-.013-.283.263-.37.638-.078.324-.07.603.006.715-.116.034-.244.305-.31.656-.063.343-.031.627.052.718-.107.055-.217.334-.257.68-.039.343.011.624.1.715-.089.1-.176.339-.213.627-.036.273-.013.51.04.643-.097.082-.171.359-.174.691-.007.265.032.491.1.621a1.554 1.554 0 0 0-.089.542c-.005.279.039.518.11.643-.021.981-.008 2.025.045 3.008h2.118c.015-.765.065-1.6.141-2.357.15-1.35.373-2.721 1.048-3.874l.005-.008a.114.114 0 0 0-.013-.127c-.04-.035-.095-.035-.132.008-.916 1.063-1.317 2.506-1.553 3.89-.042.271-.076.544-.108.816.058-1.111.161-2.217.415-3.269.292-1.281.874-2.5 1.984-3.183a.097.097 0 0 0 .039-.112.091.091 0 0 0-.11-.066c-.071.021-.136.058-.204.088-.074-.091-.344-.024-.623.153-.265.173-.44.386-.422.503 0 .005-.013.013-.013.002-.003-.013-.005-.026-.013-.034-.1-.082-.367.104-.594.42-.228.316-.317.646-.22.731.006.002.003.01-.002.01-.118-.048-.315.221-.439.596-.089.262-.11.504-.078.643 0 .004-.006.01-.006.01-.091.303-.168.609-.239.919.027-.438.066-.879.129-1.315.187-1.254.564-2.482 1.236-3.528zm6.663-3.498a.749.749 0 0 0-.485-.037.811.811 0 0 0-.326.17.885.885 0 0 0-.018-.345.838.838 0 0 0-.252-.449c-.572-.571-.178-2.291-.312-2.312-.131-.018-.084 1.696-.354 2.498a.92.92 0 0 0-.019.529.889.889 0 0 0 .26.451c.113.099.249.144.378.104a.217.217 0 0 0 .097-.043c0 .022 0 .043.002.064.03.141.129.25.266.314a.722.722 0 0 0 .488.037.792.792 0 0 0 .428-.26c.538-.625 1.802-1.515 1.727-1.634-.076-.117-1.145 1.195-1.88.913zm2.447-2.165c-.082-.117-1.095 1.065-1.785.77a.637.637 0 0 0-.452-.042.676.676 0 0 0-.235.133c-.004-.048 0-.091-.011-.133a.702.702 0 0 0-.255-.398c-.577-.505-.123-2.041-.259-2.057-.14-.016-.137 1.512-.437 2.229a.69.69 0 0 0-.036.468c.042.17.137.311.254.401a.486.486 0 0 0 .394.093.51.51 0 0 0 .161-.082c0 .008-.003.018 0 .026a.529.529 0 0 0 .269.327.643.643 0 0 0 .447.037.626.626 0 0 0 .365-.26c.427-.64 1.661-1.39 1.58-1.512zm.249-1.48c-.09-.093-.816 1.124-1.475.978a.55.55 0 0 0-.399.04.517.517 0 0 0-.168.117c0-.03.008-.059.008-.091a.676.676 0 0 0-.171-.393c-.443-.542.173-1.825.055-1.865-.12-.035-.33 1.315-.697 1.902a.627.627 0 0 0-.095.412c.01.157.076.298.168.396.095.098.21.152.336.144a.377.377 0 0 0 .244-.12c0 .053.01.111.036.167a.444.444 0 0 0 .287.242c.123.04.27.029.401-.035a.595.595 0 0 0 .284-.292c.288-.64 1.273-1.509 1.186-1.602zm-.436-1.69c-.149-.106-.624 1.076-1.189 1.384a.683.683 0 0 0-.275.295.718.718 0 0 0-.079.415c.013.125.071.231.163.284a.319.319 0 0 0 .315-.002.668.668 0 0 0 .28-.298.737.737 0 0 0 .079-.412c-.042-.669.811-1.6.706-1.666zM30.252 42.917h-5.945c-.404 0-.769-.032-1.105-.093.003 0 .003.002.003.002.976 1.451 2.506 2.552 4.058 3.29.238 1.323.537 2.548.645 2.644.11.095 1.632-.343 1.68-.484.044-.14-.622-2.407-.622-2.407.8-1.374 1.047-2.185 1.286-2.952zm14.953 10.169c-1.501.593-3.459.642-5.057.218-3.661-1.14-7.726-3.3-11.629-1.507-3.902-1.793-7.968.367-11.628 1.507-1.598.424-3.556.375-5.057-.218a.038.038 0 0 0-.037.066c2.16 1.671 5.186 2.44 7.91 1.456 2.616-.815 4.828-3.587 7.928-2.404-2.454.959-4.747 2.729-6.519 4.4l1.288 1.057c1.609-1.873 3.42-3.746 5.47-4.886.28-.165.448-.231.645-.242.197.011.365.077.643.242 2.053 1.14 3.864 3.013 5.472 4.886l1.289-1.057c-1.771-1.671-4.065-3.441-6.519-4.4 3.099-1.183 5.312 1.589 7.928 2.404 2.724.984 5.75.215 7.91-1.456.034-.029.005-.082-.037-.066zm-24.129-2.525c-3.826-.927-4.873-4.514-8.072-6.071-.034-.018-.071.022-.05.053 1.008 1.658 1.554 4.198 4.459 5.764.024.012.011.05-.016.042-4.167-.802-5.918.313-10.285-1.661-.037-.016-.076.024-.052.059 1.435 2.083 4.842 3.507 9.508 3.114 1.68-.143 2.897-.85 4.508-1.227.04-.011.04-.065 0-.073zm-8.014-2.2c-1.454-1.905-1.04-5.972-4.322-9.695-.027-.029-.074-.006-.066.031.627 2.742.441 5.857 2.157 8.139.016.024-.008.048-.031.032-3.386-2.665-6.866-3.468-8.415-5.625-.023-.029-.07-.014-.065.024.383 2.792 5.748 7.145 10.713 7.153.029 0 .047-.034.029-.059zm-5.084-5.064c-1.559-2.891.305-7.302-1.464-11.588-.019-.045-.087-.034-.087.014-.052 2.34-1.506 5.835-.627 8.473.01.024-.021.037-.034.016-2.239-3.271-4.015-3.954-5.496-6.948-.021-.045-.089-.033-.091.015C.084 35.314.984 36.973 2 38.514a17.387 17.387 0 0 0 5.928 4.836c.035.016.066-.019.05-.053zM6.921 25.691c-.003-.048-.066-.064-.09-.022-1.189 2.224-3.306 3.994-3.375 6.931-.002.029-.034.031-.039.004-.386-2.266-2.309-4.806-2.393-8.088 0-.05-.071-.063-.09-.016-1.582 4.268.693 8.314 3.116 11.657.026.034.078.014.078-.032-.099-3.542 2.971-6.186 2.793-10.434zm1.511-5.522c-1.123 1.56-3.65 2.663-4.574 4.913-.013.032-.053.024-.047-.013.367-2.522-.607-5.45.307-8.8.013-.048-.047-.08-.076-.043-1.381 1.698-1.848 3.688-1.924 5.838-.094 2.641.834 4.567 1.294 6.358.01.043.065.04.076-.003.661-2.348 3.981-3.762 5.02-8.213.014-.047-.047-.077-.076-.037zm3.047-5.245c-1.847 1.448-4.669 2.843-5.275 3.85-.01.021-.042.005-.037-.016l.685-3.287c.307-1.395.573-2.731 1.344-3.98.024-.037-.021-.08-.055-.053-3.517 2.785-3.003 6.812-3.157 10.11-.003.035.039.051.063.027 2.07-2.246 5.445-3.553 6.49-6.606.013-.037-.026-.069-.058-.045zm2.617-5.049c-3.107.099-5.391 2.716-6.37 6.048-.005.019.021.035.037.024 4.28-3.138 4.041-4.483 6.359-5.976.042-.027.024-.096-.026-.096zm35.828 38.813c-4.364 1.974-6.118.859-10.285 1.661-.026.008-.039-.03-.016-.042 2.906-1.566 3.452-4.106 4.459-5.764.021-.031-.015-.071-.049-.053-3.197 1.557-4.244 5.144-8.073 6.071-.04.008-.04.062 0 .073 1.611.377 2.829 1.084 4.508 1.227 4.666.393 8.076-1.031 9.509-3.114.023-.035-.016-.075-.053-.059zm4.727-7.445c-1.549 2.157-5.029 2.96-8.414 5.625-.021.016-.047-.008-.029-.032 1.714-2.282 1.527-5.397 2.155-8.139.007-.037-.04-.06-.066-.031-3.281 3.723-2.868 7.79-4.32 9.695-.018.025-.003.059.029.059 4.965-.008 10.327-4.361 10.71-7.153.005-.038-.042-.053-.065-.024zm2.207-7.964c-.003-.048-.071-.06-.092-.015-1.48 2.994-3.257 3.677-5.493 6.948-.016.021-.045.008-.037-.016.88-2.638-.572-6.133-.627-8.473 0-.048-.068-.059-.086-.014-1.769 4.286.094 8.697-1.462 11.588-.019.034.013.069.047.053a17.377 17.377 0 0 0 5.928-4.836c1.016-1.541 1.916-3.2 1.822-5.235zm-.756-8.779c-.018-.047-.089-.034-.089.016-.084 3.282-2.008 5.822-2.394 8.088-.005.027-.036.025-.036-.004-.069-2.937-2.189-4.707-3.378-6.931-.024-.042-.087-.026-.087.022-.178 4.248 2.89 6.892 2.79 10.434 0 .046.055.066.082.032 2.419-3.343 4.694-7.389 3.112-11.657zm-1.184-2.436c-.076-2.15-.543-4.14-1.923-5.838-.029-.037-.087-.005-.076.043.913 3.35-.061 6.278.309 8.8.006.037-.036.045-.05.013-.923-2.25-3.451-3.353-4.574-4.913-.026-.04-.087-.01-.076.037 1.039 4.451 4.359 5.865 5.021 8.213.01.043.065.046.075.003.46-1.791 1.389-3.717 1.294-6.358zm-6.023-10.626c-.034-.027-.078.016-.055.053.772 1.249 1.037 2.585 1.344 3.98l.685 3.287c.005.021-.027.037-.037.016-.606-1.007-3.424-2.402-5.275-3.85-.029-.024-.071.008-.058.045 1.045 3.053 4.42 4.36 6.491 6.606.023.024.065.008.062-.027-.154-3.298.36-7.325-3.157-10.11zm-5.954-1.563c-.05 0-.066.069-.027.096 2.318 1.493 2.079 2.838 6.359 5.976.019.011.042-.005.037-.024-.979-3.332-3.262-5.949-6.369-6.048zm21.216 7.119h.645c.603 0 1.054-.119 1.354-.357.299-.239.449-.585.449-1.04 0-.46-.126-.799-.377-1.019-.251-.219-.643-.328-1.179-.328h-.892v2.744zm4.428-1.467c0 .995-.312 1.756-.933 2.283-.622.528-1.507.79-2.653.79h-.842v3.29h-1.96v-9.247h2.953c1.122 0 1.975.242 2.559.724.584.484.876 1.203.876 2.16zm5.068-.842c.262 0 .479.02.652.058l-.145 1.809a2.215 2.215 0 0 0-.569-.064c-.617 0-1.096.158-1.44.475-.344.316-.515.759-.515 1.328v3.599h-1.929v-7.072h1.461l.285 1.19h.095c.218-.397.515-.716.888-.958a2.195 2.195 0 0 1 1.217-.365m3.085 3.657c0 .7.115 1.228.345 1.587.229.358.603.538 1.122.538.514 0 .885-.179 1.11-.534.226-.357.339-.887.339-1.591 0-.701-.114-1.225-.342-1.575-.227-.35-.6-.525-1.119-.525-.515 0-.886.174-1.113.522-.228.347-.342.874-.342 1.578zm4.889 0c0 1.15-.304 2.05-.91 2.7-.608.649-1.454.975-2.537.975-.679 0-1.278-.15-1.797-.447a2.97 2.97 0 0 1-1.195-1.281c-.278-.556-.417-1.205-.417-1.947 0-1.155.301-2.054.904-2.695.603-.64 1.451-.962 2.542-.962.68 0 1.279.149 1.797.444.519.295.917.719 1.196 1.271.278.552.417 1.2.417 1.942zm2.64-1.208c0 .383.088.687.263.91.175.223.441.336.801.336.362 0 .628-.113.797-.336.168-.223.253-.527.253-.91 0-.852-.351-1.278-1.05-1.278-.709 0-1.064.426-1.064 1.278zm-.701 5.755c0 .265.127.474.382.626.256.152.613.228 1.072.228.692 0 1.234-.096 1.626-.285.392-.19.588-.449.588-.777 0-.266-.116-.45-.348-.551-.232-.102-.59-.151-1.075-.151h-1c-.353 0-.65.082-.887.248a.772.772 0 0 0-.358.662zm5.458-8.071v.981l-1.107.285c.203.316.303.67.303 1.062 0 .759-.264 1.35-.793 1.774-.529.424-1.264.636-2.205.636l-.347-.019-.284-.032c-.199.152-.298.321-.298.507 0 .277.354.417 1.062.417h1.202c.776 0 1.368.167 1.775.5.406.333.61.822.61 1.466 0 .827-.345 1.468-1.034 1.923-.689.455-1.68.683-2.97.683-.986 0-1.74-.172-2.26-.515-.522-.344-.782-.826-.782-1.445 0-.426.133-.782.399-1.069.265-.287.655-.492 1.17-.614a1.278 1.278 0 0 1-.519-.414.988.988 0 0 1-.222-.61c0-.27.078-.494.235-.674.156-.179.382-.355.676-.528a1.892 1.892 0 0 1-.882-.772c-.217-.353-.326-.771-.326-1.252 0-.771.251-1.368.753-1.79.501-.422 1.218-.633 2.151-.633.197 0 .432.019.705.054.271.036.445.063.521.079h2.467zm4.759-.133c.262 0 .478.02.652.058l-.145 1.809a2.218 2.218 0 0 0-.57-.064c-.616 0-1.095.158-1.439.475-.344.316-.515.759-.515 1.328v3.599h-1.929v-7.072h1.461l.285 1.19h.094c.219-.397.516-.716.889-.958a2.193 2.193 0 0 1 1.217-.365m5.34 3.928l-.747.026c-.561.016-.978.118-1.252.303-.275.186-.411.468-.411.848 0 .544.312.815.936.815.446 0 .804-.127 1.071-.385.268-.257.403-.599.403-1.025v-.582zm.568 3.277l-.373-.961h-.05c-.325.408-.659.692-1.003.85-.343.158-.792.238-1.343.238-.679 0-1.214-.195-1.604-.582-.39-.388-.585-.941-.585-1.658 0-.751.263-1.303.787-1.66.526-.356 1.317-.554 2.375-.592l1.228-.038v-.309c0-.717-.367-1.075-1.101-1.075-.565 0-1.229.17-1.992.512l-.639-1.303c.814-.425 1.716-.639 2.706-.639.95 0 1.677.207 2.183.62.506.413.759 1.042.759 1.885v4.712h-1.348zm9.235 0h-1.929v-4.13c0-.51-.086-.893-.257-1.149-.17-.255-.439-.382-.806-.382-.493 0-.851.181-1.075.544-.224.363-.335.959-.335 1.789v3.328h-1.93v-7.072h1.474l.26.906h.107c.19-.326.464-.579.823-.763a2.66 2.66 0 0 1 1.233-.276c1.058 0 1.774.346 2.15 1.039h.17c.191-.329.47-.584.839-.766a2.782 2.782 0 0 1 1.249-.273c.801 0 1.407.207 1.819.618.411.411.616 1.069.616 1.976v4.611h-1.936v-4.13c0-.51-.085-.893-.256-1.149-.171-.255-.439-.382-.806-.382-.472 0-.826.168-1.059.506-.234.337-.351.872-.351 1.607v3.548m9.879-3.277l-.747.026c-.56.016-.977.118-1.252.303-.274.186-.411.468-.411.848 0 .544.313.815.937.815.446 0 .803-.127 1.071-.385.268-.257.402-.599.402-1.025v-.582zm.569 3.277l-.373-.961h-.05c-.325.408-.659.692-1.003.85-.344.158-.792.238-1.344.238-.678 0-1.214-.195-1.603-.582-.39-.388-.585-.941-.585-1.658 0-.751.262-1.303.787-1.66.525-.356 1.316-.554 2.375-.592l1.227-.038v-.309c0-.717-.367-1.075-1.1-1.075-.566 0-1.23.17-1.992.512l-.639-1.303c.813-.425 1.716-.639 2.706-.639.949 0 1.677.207 2.183.62.506.413.758 1.042.758 1.885v4.712h-1.347zM66.112 36.063l-2.227-7.254h-.056c.08 1.476.12 2.46.12 2.954v4.3h-1.752v-9.246h2.669l2.188 7.071h.038l2.321-7.071h2.669v9.246h-1.827v-4.376c0-.207.003-.445.008-.714.007-.271.036-.988.086-2.151h-.057l-2.384 7.241h-1.796m12.759 0l-.26-.904h-.102a2.023 2.023 0 0 1-.878.762 3.005 3.005 0 0 1-1.297.269c-.83 0-1.456-.222-1.878-.668-.422-.444-.633-1.084-.633-1.918v-4.612h1.93v4.13c0 .511.089.894.271 1.148.182.255.471.383.866.383.54 0 .93-.18 1.171-.541.24-.36.361-.958.361-1.793v-3.327h1.928v7.071h-1.479m9.597 0h-1.929v-4.129c0-.51-.091-.893-.273-1.149-.181-.255-.469-.382-.866-.382-.54 0-.93.18-1.17.54-.24.362-.36.959-.36 1.793v3.327h-1.93v-7.071h1.474l.26.905h.107c.215-.341.511-.6.889-.775a3.023 3.023 0 0 1 1.287-.263c.822 0 1.446.223 1.872.668.426.445.639 1.087.639 1.926v4.61m4.541-1.41c.493 0 .854-.143 1.085-.43.229-.286.354-.774.375-1.461v-.208c0-.76-.117-1.304-.351-1.632-.233-.329-.614-.493-1.142-.493-.429 0-.763.181-1.002.546-.238.365-.357.895-.357 1.591s.12 1.217.36 1.565c.241.348.584.522 1.032.522zm-.677 1.537c-.831 0-1.484-.323-1.958-.967-.474-.646-.711-1.54-.711-2.682 0-1.16.241-2.064.723-2.71.484-.648 1.149-.972 1.997-.972.889 0 1.568.346 2.036 1.038h.063a7.887 7.887 0 0 1-.145-1.411v-2.263h1.935v9.84h-1.48l-.373-.917h-.082c-.439.696-1.108 1.044-2.005 1.044zm5.53-.127h1.93v-7.071h-1.93v7.071zm-.082-8.898c0-.629.35-.942 1.05-.942.7 0 1.05.313 1.05.942 0 .299-.087.532-.263.698-.175.167-.438.25-.787.25-.7 0-1.05-.316-1.05-.948zm7.517 5.622l-.747.025c-.561.017-.978.119-1.252.304-.275.186-.412.468-.412.848 0 .544.313.815.937.815.446 0 .804-.128 1.071-.386.268-.256.403-.598.403-1.024v-.582zm.568 3.276l-.373-.96h-.05c-.325.408-.659.692-1.003.85-.344.158-.792.237-1.344.237-.678 0-1.213-.194-1.603-.582-.39-.387-.585-.94-.585-1.657 0-.751.263-1.304.787-1.66.525-.356 1.316-.554 2.375-.592l1.228-.038v-.309c0-.717-.368-1.076-1.101-1.076-.565 0-1.229.171-1.992.513l-.639-1.303c.814-.426 1.716-.639 2.706-.639.949 0 1.677.207 2.183.62.506.413.759 1.042.759 1.885v4.711h-1.348zm2.905.001h1.93v-9.841h-1.93zm9.561-1.411c.493 0 .854-.143 1.085-.43.229-.286.354-.774.376-1.461v-.208c0-.76-.117-1.304-.352-1.632-.233-.329-.614-.493-1.141-.493-.43 0-.764.181-1.002.546-.239.365-.358.895-.358 1.591s.12 1.217.361 1.565c.24.348.584.522 1.031.522zm-.677 1.537c-.831 0-1.483-.323-1.958-.967-.474-.646-.711-1.54-.711-2.682 0-1.16.241-2.064.724-2.71.483-.648 1.148-.972 1.996-.972.889 0 1.568.346 2.036 1.038h.063a7.887 7.887 0 0 1-.145-1.411v-2.263h1.935v9.84h-1.48l-.373-.917h-.082c-.439.696-1.107 1.044-2.005 1.044zm8.509-5.958c-.409 0-.73.13-.962.389-.232.26-.364.627-.399 1.104h2.708c-.008-.477-.133-.844-.374-1.104-.24-.259-.564-.389-.973-.389zm.271 5.958c-1.137 0-2.028-.314-2.669-.942-.64-.629-.961-1.519-.961-2.669 0-1.186.296-2.102.889-2.748.592-.648 1.411-.972 2.457-.972.999 0 1.777.285 2.334.855.557.569.834 1.355.834 2.358v.937h-4.559c.021.548.183.976.487 1.284.304.307.729.461 1.277.461a5.28 5.28 0 0 0 1.208-.133 5.93 5.93 0 0 0 1.189-.424v1.493a4.506 4.506 0 0 1-1.081.376 6.837 6.837 0 0 1-1.405.124zm-59.68 10.201c-.619-1.995-.969-3.123-1.047-3.383a9.902 9.902 0 0 1-.167-.62c-.139.54-.538 1.874-1.195 4.003h2.409zm1.139 3.845l-.67-2.201h-3.371l-.671 2.201h-2.112l3.263-9.284h2.397l3.276 9.284h-2.112zm2.937 0h1.93v-9.841h-1.93zm3.526 0h1.93v-7.071h-1.93v7.071zm-.082-8.898c0-.629.349-.943 1.05-.943.7 0 1.049.314 1.049.943 0 .299-.087.532-.262.698-.175.167-.438.25-.787.25-.701 0-1.05-.316-1.05-.948zm9.938 8.898h-1.929v-4.13c0-.509-.085-.892-.256-1.148-.17-.255-.44-.382-.806-.382-.493 0-.852.181-1.075.544-.224.362-.335.959-.335 1.789v3.327h-1.93v-7.071h1.474l.26.905h.107c.189-.325.464-.579.822-.762.359-.184.77-.276 1.234-.276 1.057 0 1.774.346 2.15 1.038h.17c.19-.329.47-.584.839-.765a2.782 2.782 0 0 1 1.249-.273c.801 0 1.407.206 1.818.617.411.411.616 1.07.616 1.977v4.61h-1.935v-4.13c0-.509-.085-.892-.256-1.148-.171-.255-.439-.382-.807-.382-.471 0-.825.168-1.058.506-.235.337-.352.872-.352 1.606v3.548m8.937-5.831c-.409 0-.73.13-.962.389-.232.26-.364.627-.399 1.103h2.707c-.007-.476-.132-.843-.373-1.103-.24-.259-.564-.389-.973-.389zm.271 5.958c-1.138 0-2.028-.314-2.669-.942-.64-.629-.961-1.519-.961-2.669 0-1.186.296-2.102.889-2.748.592-.648 1.411-.972 2.457-.972.999 0 1.777.285 2.334.855.557.569.834 1.355.834 2.358v.937h-4.56c.022.547.184.976.488 1.284.303.307.729.461 1.277.461a5.28 5.28 0 0 0 1.208-.133c.38-.088.775-.23 1.189-.424v1.493a4.499 4.499 0 0 1-1.082.376 6.82 6.82 0 0 1-1.404.124zm10.659-.127h-1.928v-4.13c0-.509-.091-.892-.273-1.148-.181-.255-.47-.382-.866-.382-.54 0-.93.18-1.17.54-.24.361-.36.959-.36 1.793v3.327h-1.93v-7.071h1.474l.259.905h.108c.215-.342.511-.6.888-.775a3.028 3.028 0 0 1 1.288-.263c.822 0 1.446.223 1.872.668.425.444.638 1.087.638 1.926v4.61m4.525-1.41c.337 0 .741-.074 1.214-.222v1.436c-.481.215-1.072.323-1.771.323-.771 0-1.334-.195-1.685-.586-.353-.389-.529-.974-.529-1.755v-3.408h-.924v-.816l1.063-.646.557-1.492h1.233v1.505h1.979v1.449h-1.979v3.408c0 .275.077.477.231.608.154.131.358.196.611.196m3.754-2.138c0 .701.115 1.229.344 1.587.23.359.604.538 1.122.538.515 0 .885-.178 1.111-.534.225-.356.339-.887.339-1.591 0-.7-.115-1.224-.342-1.575-.228-.349-.601-.524-1.119-.524-.515 0-.886.174-1.114.521-.227.348-.341.874-.341 1.578zm4.888 0c0 1.151-.303 2.051-.91 2.701-.607.649-1.453.974-2.536.974-.68 0-1.278-.149-1.797-.446a2.97 2.97 0 0 1-1.195-1.281c-.278-.556-.417-1.205-.417-1.948 0-1.155.301-2.053.904-2.694s1.45-.962 2.542-.962c.68 0 1.278.149 1.797.443.519.295.917.719 1.195 1.272.279.552.417 1.199.417 1.941zm6.186 1.449c0 .725-.252 1.277-.756 1.657-.504.379-1.258.569-2.261.569-.514 0-.953-.035-1.316-.104a5.087 5.087 0 0 1-1.018-.307v-1.594c.359.168.762.31 1.211.423.449.114.845.171 1.186.171.7 0 1.05-.202 1.05-.606a.502.502 0 0 0-.139-.37c-.093-.095-.253-.204-.481-.324-.227-.12-.531-.26-.911-.42-.544-.227-.943-.438-1.198-.632a1.791 1.791 0 0 1-.557-.667c-.116-.251-.173-.56-.173-.927 0-.628.243-1.114.73-1.458.487-.344 1.177-.516 2.071-.516.852 0 1.68.186 2.486.557l-.582 1.391a10.896 10.896 0 0 0-.993-.373 3.15 3.15 0 0 0-.943-.145c-.568 0-.853.154-.853.462 0 .173.091.322.275.449.184.126.585.313 1.205.562.552.224.957.433 1.214.626.257.195.447.418.569.671.122.253.184.555.184.905" fill-rule="evenodd"/></svg>